<mxfile host="app.diagrams.net" agent="Mozilla/5.0 (Windows NT 10.0; Win64; x64) AppleWebKit/537.36 (KHTML, like Gecko) Chrome/129.0.0.0 Safari/537.36" version="24.8.1">
  <diagram name="Page-1" id="B0yCeMQPtRbBMmT01l-a">
    <mxGraphModel dx="1498" dy="1097" grid="1" gridSize="10" guides="1" tooltips="1" connect="1" arrows="1" fold="1" page="1" pageScale="1" pageWidth="850" pageHeight="1100" math="0" shadow="0">
      <root>
        <mxCell id="0" />
        <mxCell id="1" parent="0" />
        <mxCell id="FSSLHta4ofO5KxRWTico-1" value="" style="strokeWidth=1;shadow=0;dashed=0;align=center;html=1;shape=mxgraph.mockup.containers.browserWindow;rSize=0;strokeColor=#666666;strokeColor2=#008cff;strokeColor3=#c4c4c4;mainText=,;recursiveResize=0;" vertex="1" parent="1">
          <mxGeometry x="40" y="120" width="767.5" height="940" as="geometry" />
        </mxCell>
        <mxCell id="FSSLHta4ofO5KxRWTico-2" value="DineScout" style="strokeWidth=1;shadow=0;dashed=0;align=center;html=1;shape=mxgraph.mockup.containers.anchor;fontSize=17;fontColor=#666666;align=left;whiteSpace=wrap;" vertex="1" parent="FSSLHta4ofO5KxRWTico-1">
          <mxGeometry x="60" y="12" width="110" height="26" as="geometry" />
        </mxCell>
        <mxCell id="FSSLHta4ofO5KxRWTico-3" value="https://www.dinescout.com/admin_update" style="strokeWidth=1;shadow=0;dashed=0;align=center;html=1;shape=mxgraph.mockup.containers.anchor;rSize=0;fontSize=17;fontColor=#666666;align=left;" vertex="1" parent="FSSLHta4ofO5KxRWTico-1">
          <mxGeometry x="130" y="60" width="250" height="26" as="geometry" />
        </mxCell>
        <mxCell id="FSSLHta4ofO5KxRWTico-4" value="" style="strokeWidth=1;shadow=0;dashed=0;align=center;html=1;shape=mxgraph.mockup.forms.rrect;rSize=0;strokeColor=#999999;fillColor=#ffffff;" vertex="1" parent="FSSLHta4ofO5KxRWTico-1">
          <mxGeometry x="180" y="110" width="420" height="830" as="geometry" />
        </mxCell>
        <mxCell id="FSSLHta4ofO5KxRWTico-5" value="" style="rounded=0;whiteSpace=wrap;html=1;" vertex="1" parent="FSSLHta4ofO5KxRWTico-4">
          <mxGeometry x="50" y="170" width="320" height="566" as="geometry" />
        </mxCell>
        <mxCell id="FSSLHta4ofO5KxRWTico-6" value="" style="ellipse;whiteSpace=wrap;html=1;aspect=fixed;" vertex="1" parent="FSSLHta4ofO5KxRWTico-4">
          <mxGeometry x="163.98000000000002" y="41.30303030303031" width="80" height="80" as="geometry" />
        </mxCell>
        <mxCell id="FSSLHta4ofO5KxRWTico-7" value="Logo" style="text;strokeColor=none;fillColor=none;html=1;fontSize=24;fontStyle=1;verticalAlign=middle;align=center;" vertex="1" parent="FSSLHta4ofO5KxRWTico-4">
          <mxGeometry x="100" y="58.61" width="210" height="45.39" as="geometry" />
        </mxCell>
        <mxCell id="FSSLHta4ofO5KxRWTico-8" value="" style="strokeWidth=1;shadow=0;dashed=0;align=center;html=1;shape=mxgraph.mockup.forms.anchor;fontSize=12;fontColor=#666666;align=left;resizeWidth=1;spacingLeft=0;" vertex="1" parent="FSSLHta4ofO5KxRWTico-4">
          <mxGeometry x="159" y="505" width="210" height="130" as="geometry" />
        </mxCell>
        <mxCell id="FSSLHta4ofO5KxRWTico-9" value="" style="strokeWidth=1;shadow=0;dashed=0;align=center;html=1;shape=mxgraph.mockup.forms.anchor;fontSize=12;fontColor=#666666;align=left;resizeWidth=1;spacingLeft=0;" vertex="1" parent="FSSLHta4ofO5KxRWTico-4">
          <mxGeometry x="69.5" y="725" width="210" height="130" as="geometry" />
        </mxCell>
        <mxCell id="FSSLHta4ofO5KxRWTico-10" value="" style="rounded=0;whiteSpace=wrap;html=1;" vertex="1" parent="FSSLHta4ofO5KxRWTico-4">
          <mxGeometry x="73" y="444" width="270" height="20" as="geometry" />
        </mxCell>
        <mxCell id="FSSLHta4ofO5KxRWTico-11" value="" style="rounded=0;whiteSpace=wrap;html=1;" vertex="1" parent="FSSLHta4ofO5KxRWTico-4">
          <mxGeometry x="73" y="501" width="270" height="20" as="geometry" />
        </mxCell>
        <mxCell id="FSSLHta4ofO5KxRWTico-12" value="User Account" style="strokeWidth=1;shadow=0;dashed=0;align=center;html=1;shape=mxgraph.mockup.forms.rrect;rSize=5;strokeColor=none;fontColor=#ffffff;fillColor=#66bbff;fontSize=16;fontStyle=1;" vertex="1" parent="FSSLHta4ofO5KxRWTico-4">
          <mxGeometry x="290" y="10" width="120" height="30" as="geometry" />
        </mxCell>
        <mxCell id="FSSLHta4ofO5KxRWTico-13" value="" style="verticalLabelPosition=bottom;shadow=0;dashed=0;align=center;html=1;verticalAlign=top;strokeWidth=1;shape=mxgraph.mockup.graphics.simpleIcon;strokeColor=#999999;" vertex="1" parent="FSSLHta4ofO5KxRWTico-4">
          <mxGeometry x="200" y="651" width="143" height="69" as="geometry" />
        </mxCell>
        <mxCell id="FSSLHta4ofO5KxRWTico-14" value="Update" style="strokeWidth=1;shadow=0;dashed=0;align=center;html=1;shape=mxgraph.mockup.forms.rrect;rSize=5;strokeColor=none;fontColor=#ffffff;fillColor=#66bbff;fontSize=16;fontStyle=1;" vertex="1" parent="FSSLHta4ofO5KxRWTico-4">
          <mxGeometry x="61" y="254" width="126.82" height="30" as="geometry" />
        </mxCell>
        <mxCell id="FSSLHta4ofO5KxRWTico-15" value="Delete" style="strokeWidth=1;shadow=0;dashed=0;align=center;html=1;shape=mxgraph.mockup.forms.rrect;rSize=5;strokeColor=none;fontColor=#ffffff;fillColor=#66bbff;fontSize=16;fontStyle=1;" vertex="1" parent="FSSLHta4ofO5KxRWTico-4">
          <mxGeometry x="231" y="254" width="126.82" height="30" as="geometry" />
        </mxCell>
        <mxCell id="FSSLHta4ofO5KxRWTico-25" value="Account Status: Active" style="strokeWidth=1;shadow=0;dashed=0;align=center;html=1;shape=mxgraph.mockup.forms.anchor;fontSize=12;fontColor=#666666;align=left;resizeWidth=1;spacingLeft=0;" vertex="1" parent="FSSLHta4ofO5KxRWTico-4">
          <mxGeometry x="63" y="174" width="120" height="40" as="geometry" />
        </mxCell>
        <mxCell id="FSSLHta4ofO5KxRWTico-16" value="" style="rounded=0;whiteSpace=wrap;html=1;" vertex="1" parent="1">
          <mxGeometry x="293" y="558" width="270" height="20" as="geometry" />
        </mxCell>
        <mxCell id="FSSLHta4ofO5KxRWTico-17" value="&lt;span style=&quot;font-size: 16px;&quot;&gt;User Account&lt;/span&gt;" style="strokeWidth=1;shadow=0;dashed=0;align=center;html=1;shape=mxgraph.mockup.forms.anchor;fontSize=12;fontColor=#666666;align=left;resizeWidth=1;spacingLeft=0;" vertex="1" parent="1">
          <mxGeometry x="375" y="309" width="210" height="130" as="geometry" />
        </mxCell>
        <mxCell id="FSSLHta4ofO5KxRWTico-18" value="" style="rounded=0;whiteSpace=wrap;html=1;" vertex="1" parent="1">
          <mxGeometry x="293" y="616" width="270" height="20" as="geometry" />
        </mxCell>
        <mxCell id="FSSLHta4ofO5KxRWTico-19" value="" style="rounded=0;whiteSpace=wrap;html=1;" vertex="1" parent="1">
          <mxGeometry x="293" y="787" width="270" height="20" as="geometry" />
        </mxCell>
        <mxCell id="FSSLHta4ofO5KxRWTico-20" value="" style="rounded=0;whiteSpace=wrap;html=1;" vertex="1" parent="1">
          <mxGeometry x="292.75" y="844" width="270" height="20" as="geometry" />
        </mxCell>
        <mxCell id="FSSLHta4ofO5KxRWTico-21" value="Restaurant Name OR User Name&lt;div&gt;&lt;br&gt;&lt;/div&gt;&lt;div&gt;Name here&lt;br&gt;&lt;div&gt;&lt;br&gt;&lt;/div&gt;&lt;div&gt;Address OR Location&lt;/div&gt;&lt;div&gt;&lt;br&gt;&lt;/div&gt;&lt;div&gt;Location here&lt;/div&gt;&lt;div&gt;&lt;br&gt;&lt;/div&gt;&lt;div&gt;Email (login username)&lt;/div&gt;&lt;div&gt;&lt;br&gt;&lt;/div&gt;&lt;div&gt;Email here&lt;/div&gt;&lt;div&gt;&lt;br&gt;&lt;/div&gt;&lt;div&gt;Password&lt;/div&gt;&lt;/div&gt;&lt;div&gt;&lt;br&gt;&lt;/div&gt;&lt;div&gt;New password here&lt;/div&gt;&lt;div&gt;&lt;br&gt;&lt;/div&gt;&lt;div&gt;Restaurant Type (Rest Only)&lt;/div&gt;&lt;div&gt;&lt;br&gt;&lt;/div&gt;&lt;div&gt;Type List Here&lt;/div&gt;&lt;div&gt;&lt;br&gt;&lt;/div&gt;&lt;div&gt;Hours (Rest Only)&lt;/div&gt;&lt;div&gt;&lt;br&gt;&lt;/div&gt;&lt;div&gt;Hours Listed Here&lt;/div&gt;&lt;div&gt;&lt;br&gt;&lt;/div&gt;&lt;div&gt;Restaurant Image&amp;nbsp;&lt;/div&gt;&lt;div&gt;&lt;u&gt;&lt;font color=&quot;#0000ff&quot;&gt;Upload Image&lt;/font&gt;&lt;/u&gt;&lt;/div&gt;" style="strokeWidth=1;shadow=0;dashed=0;align=center;html=1;shape=mxgraph.mockup.forms.anchor;fontSize=12;fontColor=#666666;align=left;resizeWidth=1;spacingLeft=0;" vertex="1" parent="1">
          <mxGeometry x="293" y="654" width="210" height="130" as="geometry" />
        </mxCell>
        <mxCell id="FSSLHta4ofO5KxRWTico-22" value="Update User or Restaurant [Admin Account Page]" style="text;strokeColor=none;fillColor=none;html=1;fontSize=24;fontStyle=1;verticalAlign=middle;align=center;" vertex="1" parent="1">
          <mxGeometry x="375" y="40" width="100" height="60" as="geometry" />
        </mxCell>
        <mxCell id="FSSLHta4ofO5KxRWTico-23" value="Suspend" style="strokeWidth=1;shadow=0;dashed=0;align=center;html=1;shape=mxgraph.mockup.forms.rrect;rSize=5;strokeColor=none;fontColor=#ffffff;fillColor=#66bbff;fontSize=16;fontStyle=1;" vertex="1" parent="1">
          <mxGeometry x="282" y="445" width="126.82" height="30" as="geometry" />
        </mxCell>
        <mxCell id="FSSLHta4ofO5KxRWTico-24" value="Reinstate" style="strokeWidth=1;shadow=0;dashed=0;align=center;html=1;shape=mxgraph.mockup.forms.rrect;rSize=5;strokeColor=none;fontColor=#ffffff;fillColor=#66bbff;fontSize=16;fontStyle=1;" vertex="1" parent="1">
          <mxGeometry x="452" y="445" width="126.82" height="30" as="geometry" />
        </mxCell>
      </root>
    </mxGraphModel>
  </diagram>
</mxfile>
